<svg width="45" height="41" viewBox="0 0 45 41" fill="none" xmlns="http://www.w3.org/2000/svg">
<path d="M11.8126 27.8718C10.3565 27.0826 8.97018 26.1233 7.68468 24.9884C7.52514 24.8491 7.43528 24.6481 7.43528 24.4382V17.3808M37.5629 16.8396V24.4364C37.5629 24.6463 37.4712 24.8472 37.3135 24.9866C36.028 26.1197 34.6416 27.0808 33.1856 27.8682M20.0629 35.1464C20.5268 35.7437 21.341 36.1401 22.2689 36.1401C23.7103 36.1401 24.8803 35.1826 24.8803 34.0024C24.8803 32.8856 23.8295 32.0041 22.4963 31.8738H22.4982C21.286 31.7887 20.3343 30.9561 20.3343 29.9407C20.3343 28.8691 21.396 28.0003 22.7054 28.0003C23.5361 28.0003 24.2678 28.3515 24.6914 28.88M22.4725 36.2324V37.7438M22.4725 26.2935V27.87M20.9413 19.6615L1.09765 10.6511C0.96745 10.5914 0.96745 10.4086 1.09765 10.3488L20.9413 1.33667C21.9297 0.887778 23.0685 0.887778 24.0569 1.33667L43.9023 10.347C44.0325 10.4068 44.0325 10.5896 43.9023 10.6493L24.0569 19.6597C23.0685 20.1086 21.9297 20.1086 20.9413 19.6597V19.6615ZM30.5891 30.3303C31.4494 34.7398 28.5253 39.0027 24.058 39.8518C19.5906 40.7009 15.2717 37.8147 14.4115 33.4053C13.5512 28.9958 16.4753 24.7329 20.9426 23.8838C25.41 23.0347 29.7289 25.9209 30.5891 30.3303Z" stroke="#2C5680" stroke-width="1.6" stroke-linecap="round" stroke-linejoin="round"/>
</svg>
