<svg width="39" height="39" viewBox="0 0 39 39" fill="none" xmlns="http://www.w3.org/2000/svg">
<path d="M9.80951 12.5624C9.80951 12.015 10.2434 11.5713 10.7786 11.5713H28.2214C28.7566 11.5713 29.1905 12.015 29.1905 12.5624M9.80951 12.5624V26.4374C9.80951 26.9847 10.2434 27.4284 10.7786 27.4284H28.2214C28.7566 27.4284 29.1905 26.9847 29.1905 26.4374V12.5624M9.80951 12.5624V20.4909M29.1905 12.5624V20.4909M9.80951 15.5356H29.1905M20.9536 23.4641H25.3143" stroke="#2C5680" stroke-width="1.6" stroke-linecap="round" stroke-linejoin="round"/>
<path d="M38 3.05556V19.5C38 9.28276 29.7172 1 19.5 1C14.2732 1 9.55276 3.16754 6.18833 6.65278M1 35.9444V19.5C1 29.7172 9.28276 38 19.5 38C24.4905 38 29.0195 36.024 32.3472 32.8117" stroke="#2C5680" stroke-width="1.6" stroke-linecap="round" stroke-linejoin="round"/>
</svg>
