<svg width="43" height="36" viewBox="0 0 43 36" fill="none" xmlns="http://www.w3.org/2000/svg">
<path d="M38.6452 35V30.0006M26.7182 35V30.5251M23.8746 27.5936L18.0505 22.9367C17.5988 22.5747 16.9383 22.6153 16.5369 23.0303L15.6118 23.9839C15.1781 24.4307 15.2051 25.1424 15.6748 25.5557L21.6986 30.8571C22.5913 31.6429 23.7486 32.0773 24.949 32.0773H26.7182M29.2721 20.4414L28.5162 20.7505C25.7049 21.9037 23.8728 24.6003 23.8728 27.5918M36.6007 20.4414L37.3566 20.7505C40.1678 21.9037 42 24.6003 42 27.5918V34.9982M29.2955 20.4379C30.3231 21.524 31.5866 22.1632 32.949 22.1632C34.3114 22.1632 35.5712 21.524 36.6007 20.4379M16.258 21.2997L15.8638 20.973C15.1439 20.3779 14.0748 20.4503 13.4431 21.1337C12.7934 21.8383 12.851 22.9279 13.5745 23.5619L13.8427 23.7968M13.2685 21.0595L7.72346 15.7669M9.87958 25.6422H1V1H36.1922V4.4913M26.7956 19.6097C27.1951 19.1488 27.3769 18.5077 27.2023 17.8596L26.5976 15.6168C25.0102 10.9547 28.7429 6.19898 33.7427 6.51509H33.7463C34.8963 6.61222 35.9366 7.22147 36.5683 8.16803C39.0808 10.0982 40.2002 13.2981 39.4227 16.3356L38.782 18.8397M29.8156 11.8094C29.6212 11.8041 29.4268 11.79 29.2325 11.7688L29.3315 12.7454C29.4016 13.4359 29.2289 14.1299 28.8455 14.6932C28.7573 14.8222 28.7141 14.9793 28.7231 15.1383C28.8491 17.4888 30.6939 19.3483 32.9364 19.3095C35.2113 19.2688 37.0146 17.238 37.0146 14.8116V12.9979L36.7195 12.7736C35.8502 12.1132 35.2941 11.0819 35.1951 9.94811L34.3402 10.5132C32.9796 11.4121 31.4066 11.8606 29.8156 11.8112" stroke="#2C5680" stroke-width="1.6" stroke-linecap="round" stroke-linejoin="round"/>
</svg>
