<svg width="39" height="45" viewBox="0 0 39 45" fill="none" xmlns="http://www.w3.org/2000/svg">
<path d="M27.2563 40.2905H11.1433C10.9275 40.2905 10.7239 40.1897 10.5895 40.0176L5.14116 33.0792C4.94978 32.8358 4.92942 32.5 5.08822 32.2356C5.20224 32.0425 7.93049 27.5218 12.54 26.5438C15.081 26.0023 17.6748 26.6529 20.2484 28.4704H25.7497C27.2441 28.4704 28.4901 29.5786 28.7589 31.0393L30.0375 29.822C32.383 27.589 35.8768 27.3287 38.3485 29.2008C38.4869 29.3057 38.6213 29.4149 38.7516 29.5324C38.9063 29.6709 38.9959 29.8724 39 30.0823C39 30.2921 38.9145 30.4978 38.7598 30.6363L28.8892 39.6567C28.4413 40.068 27.859 40.2947 27.2604 40.2947L27.2563 40.2905ZM11.4854 38.8214H27.2563C27.5088 38.8214 27.7531 38.7248 27.9404 38.5527L37.1472 30.1368C35.2578 28.9573 32.7372 29.247 31.0026 30.8966L28.0463 33.7089C27.4843 34.3637 26.6618 34.7792 25.7497 34.7792H16.8075C16.4125 34.7792 16.0949 34.4518 16.0949 34.0447C16.0949 33.6375 16.4125 33.3101 16.8075 33.3101H25.7497C26.0917 33.3101 26.4134 33.201 26.674 33.0121L27.0201 32.6847C27.2482 32.3951 27.3866 32.0257 27.3866 31.6227C27.3866 30.6909 26.6536 29.9354 25.7497 29.9354H20.0285C19.8819 29.9354 19.7393 29.8892 19.6172 29.801C17.3206 28.1263 15.0402 27.5134 12.8413 27.9793C9.60409 28.6635 7.3482 31.4968 6.58673 32.5797L11.4894 38.8214H11.4854Z" fill="#2C5680"/>
<path d="M9.71811 45C9.51044 45 9.31091 44.9077 9.17653 44.7398L0.169225 33.8348C0.00227252 33.6291 -0.0465917 33.3479 0.0470647 33.1002C0.136649 32.8484 0.356538 32.6721 0.613075 32.6343L5.59723 31.8914C5.98814 31.8326 6.34648 32.1138 6.40349 32.5126C6.4605 32.9155 6.18767 33.2849 5.80083 33.3437L2.09529 33.8935L9.429 42.7712L10.4674 39.3334C10.5855 38.9473 10.9845 38.729 11.3591 38.8507C11.7338 38.9725 11.9455 39.3838 11.8274 39.77L10.4022 44.4795C10.3248 44.7356 10.1172 44.9286 9.8647 44.979C9.81584 44.9874 9.77105 44.9958 9.72218 44.9958L9.71811 45Z" fill="#2C5680"/>
<path d="M25.0859 26.9518C21.4822 26.9518 18.1268 25.4743 15.6429 22.7922C13.3015 20.2779 12.0107 16.9703 12.0107 13.4738C12.0107 9.97734 13.2648 6.76209 15.5411 4.26041C18.0047 1.55725 21.4822 0 25.0859 0C28.6896 0 32.1753 1.55725 34.6267 4.273C36.9029 6.77468 38.1571 10.0445 38.1571 13.478C38.1571 16.9115 36.8663 20.2821 34.5208 22.7964C32.0368 25.4743 28.6856 26.9518 25.0818 26.9518H25.0859ZM25.0859 1.46911C21.8283 1.46911 18.8069 2.82069 16.5835 5.272C14.5557 7.50084 13.4359 10.4139 13.4359 13.478C13.4359 16.5422 14.5842 19.5391 16.6731 21.7764C18.8883 24.1647 21.8772 25.4827 25.0859 25.4827C28.2947 25.4827 31.2795 24.1689 33.4946 21.7806C35.5836 19.5391 36.7319 16.5925 36.7319 13.478C36.7319 10.3635 35.6162 7.50504 33.5842 5.27619C31.3975 2.85427 28.3028 1.46911 25.0818 1.46911H25.0859Z" fill="#2C5680"/>
<path d="M25.0859 8.32774C23.6729 8.32774 22.264 8.14725 20.8958 7.79047C19.0227 7.29936 17.2636 6.48926 15.6633 5.38113C15.4882 5.2594 15.3741 5.07052 15.3538 4.85645C15.3294 4.64238 15.3986 4.42831 15.5411 4.273C18.0047 1.55725 21.4822 0 25.0859 0C28.6896 0 32.1753 1.55725 34.6267 4.273C34.7692 4.43251 34.8384 4.64238 34.814 4.85645C34.7895 5.07052 34.6755 5.2636 34.5045 5.38113C32.9001 6.48926 31.141 7.29936 29.2801 7.78207C27.9119 8.13885 26.503 8.31934 25.09 8.31934L25.0859 8.32774ZM17.1984 4.64238C18.4567 5.41051 19.8167 5.98976 21.246 6.36333C23.7503 7.01814 26.4175 7.01814 28.9258 6.36333C30.347 5.99396 31.7029 5.41471 32.9693 4.64658C30.8397 2.61921 28.0096 1.46911 25.0859 1.46911C22.1622 1.46911 19.3525 2.58983 17.1984 4.64238Z" fill="#2C5680"/>
<path d="M25.0859 26.9518C21.4822 26.9518 18.1268 25.4743 15.6429 22.7922C15.4963 22.6326 15.4271 22.4186 15.4515 22.2003C15.4759 21.982 15.59 21.789 15.7691 21.6714C17.3613 20.5927 19.096 19.8036 20.9365 19.3251C23.6403 18.6241 26.5396 18.6241 29.2475 19.3251C31.0881 19.8036 32.8268 20.5927 34.4108 21.6714C34.5859 21.7932 34.704 21.9862 34.7244 22.2003C34.7447 22.4144 34.6755 22.6327 34.533 22.788C32.0491 25.4701 28.6978 26.9476 25.0941 26.9476L25.0859 26.9518ZM17.3084 22.4186C19.4421 24.404 22.1703 25.4869 25.0859 25.4869C28.0015 25.4869 30.7257 24.404 32.8594 22.4186C31.6215 21.6756 30.29 21.1174 28.8932 20.7564C26.4134 20.1142 23.7584 20.1142 21.2786 20.7564C19.8859 21.1174 18.5544 21.6756 17.3084 22.4186Z" fill="#2C5680"/>
<path d="M25.0859 26.956C21.6084 26.956 19.7312 20.0134 19.7312 13.478C19.7312 6.94258 21.6043 0 25.0859 0C28.5675 0 30.4406 6.94258 30.4406 13.478C30.4406 20.0134 28.5634 26.956 25.0859 26.956ZM25.0859 1.46911C23.225 1.46911 21.1564 6.40111 21.1564 13.478C21.1564 20.5549 23.2291 25.4869 25.0859 25.4869C26.9428 25.4869 29.0154 20.5549 29.0154 13.478C29.0154 6.40111 26.9428 1.46911 25.0859 1.46911Z" fill="#2C5680"/>
<path d="M12.7233 14.2126C12.3283 14.2126 12.0107 13.8852 12.0107 13.478C12.0107 13.0709 12.3283 12.7435 12.7233 12.7435H37.4486C37.8435 12.7435 38.1612 13.0709 38.1612 13.478C38.1612 13.8852 37.8435 14.2126 37.4486 14.2126H12.7233Z" fill="#2C5680"/>
</svg>
